# xmcd
#
# Track frame offsets:
#       150
#       20188
#       32264
#       64174
#       90414
#       111923
#       130005
#       140769
#       161512
#       181723
#       193290
#       216866
#       237014
#       249787
#
# Disc length: 3529 seconds
#
# Revision: 3
# Processed by: cddbd v1.5.1PL0 Copyright (c) Steve Scherf et al.
# Submitted via: MusiCat 1.1
#
DISCID=b90dc70e
DTITLE=Gutpuppet - Gutpuppet
DYEAR=2004
DGENRE=
TTITLE0=Hollerin'
TTITLE1=Tough Talk
TTITLE2=East Banjo Shehnai
TTITLE3=Idahobokenewjersey
TTITLE4=Montuno VI
TTITLE5=Mauro Giuliani With Toy Organ
TTITLE6=Demonchaser
TTITLE7=Stalking The Wild Pendulum
TTITLE8=Dirtgodbonepoetry
TTITLE9=Harmolodica
TTITLE10=Earl Scruggs Vivisection
TTITLE11=Gamelan 19
TTITLE12=Freedom Jazz Dance
TTITLE13=Gin and Pentatonics
EXTD=Woetone Records\nWTCD 118\n
EXTT0=
EXTT1=
EXTT2=
EXTT3=
EXTT4=
EXTT5=
EXTT6=
EXTT7=
EXTT8=
EXTT9=
EXTT10=
EXTT11=
EXTT12=
EXTT13=
PLAYORDER=
